<!-- Generated by scripts/nameplates.ts. Noto Sans SC Black (SIL OFL 1.1). -->
<svg xmlns="http://www.w3.org/2000/svg" viewBox="0 -122.0 706.2 244.0"><path id="accent" d="M12-11.6L12-43.2L72.0-43.2Q74.0-50.7 75.9-58.2L75.9-58.2L31.3-58.2L31.3-89.5L83.4-89.5Q85.6-100 87.7-110L87.7-110L122.5-105.7Q120.6-97.7 118.6-89.5L118.6-89.5L201.3-89.5L201.3-58.2L110.9-58.2Q108.8-50.7 107.0-43.2L107.0-43.2L217.7-43.2L217.7-11.6L98.4-11.6Q96.1-3.6 94.0 3.9L94.0 3.9L179.5 3.9L185.0 2.3L210.4 16.8Q200.2 28.0 188.3 40.1Q176.3 52.3 164.0 64.5L164.0 64.5Q161.5 66.8 159.3 69.1L159.3 69.1Q161.8 70 164.0 70.7L164.0 70.7Q178.1 76.1 188.1 81.1L188.1 81.1L169.0 110.0Q160.0 104.8 146.4 99.1Q132.9 93.4 117.2 87.8Q101.5 82.3 85.8 77.4Q70.0 72.5 55.9 69.1L55.9 69.1L73.4 44.1Q86.8 46.8 102.5 50.9L102.5 50.9Q113.4 53.9 124.5 57.3L124.5 57.3Q128.8 53.2 133.4 48.6L133.4 48.6Q140.9 41.6 147.7 34.5L147.7 34.5L76.1 34.5L76.1 34.5L49.5 34.3Q54.3 20.2 59.5 2.7L59.5 2.7Q61.5-4.3 63.6-11.6L63.6-11.6L12-11.6Z M243.0 12.7L243.0-10.9L346.4-10.9L346.4 12.7L311.2 12.7L311.2 27.7L341.2 27.7L341.2 51.1L311.2 51.1L311.2 75.2Q316.4 76.4 322.3 76.8L322.3 76.8Q334.8 78.2 350.7 78.2L350.7 78.2Q348.9 73.6 345.0 67.7L345.0 67.7Q340.5 61.4 336.6 57.7L336.6 57.7Q354.1 53.0 364.1 45.7L364.1 45.7Q370.9 40.9 375.2 34.8L375.2 34.8L351.6 34.8L351.6-60.5L377.5-60.5Q380.0-66.4 382.5-73.6L382.5-73.6L345.5-73.6L345.5-99.3L454.1-99.3L454.1-73.6L414.3-73.6Q412.5-70 410.7-66.6L410.7-66.6Q409.1-63.4 407.5-60.5L407.5-60.5L446.8-60.5L446.8 33.0L419.3 33.0L419.3-37.5L378.0-37.5L378.0 30.0Q378.4 29.3 378.7 28.4L378.7 28.4Q383.2 18.4 384.6 4.1Q385.9-10.2 386.2-29.3L386.2-29.3L413.0-29.3Q412.5-6.8 410.5 10.7Q408.4 28.2 402.4 41.3Q396.4 54.3 384.1 63.6L384.1 63.6Q372.7 72.3 354.1 78.2L354.1 78.2L367.1 78.2Q377.3 78.2 390.0 78.1Q402.7 78.0 415.7 77.7L415.7 77.7Q425.0 77.7 433.4 77.5L433.4 77.5Q430.5 74.8 426.6 71.4L426.6 71.4Q420.0 66.1 413.0 60.5Q405.9 54.8 399.8 50.2L399.8 50.2L417.5 32.3Q423.4 36.4 430.6 41.5Q437.7 46.6 444.6 51.7Q451.4 56.8 455.7 60.7L455.7 60.7L440.2 77.5Q450.7 77.3 456.8 77.0L456.8 77.0Q453.7 81.6 450.6 89.7Q447.5 97.7 446.4 103.9L446.4 103.9L351.2 103.9Q330.5 103.9 314.6 101.7Q298.7 99.5 287.1 93.2L287.1 93.2Q277.7 88.4 270.9 80.0L270.9 80.0Q266.8 96.1 258.9 108.2L258.9 108.2Q256.6 106.1 252.4 103.2Q248.2 100.2 243.9 97.5Q239.6 94.8 236.4 93.2L236.4 93.2Q245.7 80.5 248.3 60.9Q250.9 41.4 251.2 18.9L251.2 18.9L277.5 20.7Q277.1 33.9 275.9 46.1L275.9 46.1Q279.1 53.9 283.4 59.1L283.4 59.1Q283.4 59.3 283.7 59.5L283.7 59.5L283.7 12.7L243.0 12.7ZM251.8-21.8L251.8-99.5L337.5-99.5L337.5-21.8L251.8-21.8ZM307.1-50.7L280.9-50.7L280.9-43.4L307.1-43.4L307.1-50.7ZM307.1-78.0L280.9-78.0L280.9-70.9L307.1-70.9L307.1-78.0Z"/><path id="ink" d="M562.6 106.8L562.6-99.8L683.0-99.8L683.0-95.5Q682.8-90.9 682.6-88.0L682.6-88.0Q681.9-63.9 679.9-51.7Q677.8-39.5 673.5-34.5Q669.2-29.5 663.2-27.7Q657.1-25.9 650.5-25.2L650.5-25.2Q644.4-24.8 635.1-24.8Q625.8-24.8 615.5-25L615.5-25Q615.3-30.9 612.9-38.6Q610.5-46.4 607.4-51.6L607.4-51.6Q613.5-51.1 618.9-50.9Q624.4-50.7 628.8-50.6Q633.3-50.5 635.8-50.5L635.8-50.5Q638.9-50.5 641.0-50.8Q643.0-51.1 644.6-52.7Q646.2-54.3 647.1-59.3L647.1-59.3Q647.6-63.0 648.0-69.3L648.0-69.3L595.3-69.3L595.3-19.5L660.5-19.5L666.2-20.5L687.4-14.3Q683.5 15.2 673.9 38.6L673.9 38.6Q668.9 50.9 662.4 61.4L662.4 61.4Q676.4 72.7 694.2 79.8L694.2 79.8Q690.5 83.0 686.2 88.0Q681.9 93.0 678.0 98.3Q674.2 103.6 671.7 108.0L671.7 108.0Q654.2 99.8 640.8 87.7L640.8 87.7Q627.4 100.2 609.4 109.1L609.4 109.1Q605.8 103.0 599.4 95.7L599.4 95.7Q597.4 93.4 595.3 91.1L595.3 91.1L595.3 106.8L562.6 106.8ZM482.4 38.6L475.5 4.8Q486.2 2.7 499.6-0.2L499.6-0.2Q502.4-0.7 505.1-1.4L505.1-1.4L505.1-34.1L478.5-34.1L478.5-66.1L505.1-66.1L505.1-108.0L538.9-108.0L538.9-66.1L558.5-66.1L558.5-34.1L538.9-34.1L538.9-8.9Q548.0-10.9 556.9-13.0L556.9-13.0L561.0 19.3Q550.1 22.0 538.9 24.8L538.9 24.8L538.9 72.0Q538.9 84.1 536.3 90.9Q533.7 97.7 526.7 101.6Q519.6 105.5 509.5 106.6Q499.4 107.7 485.8 107.5L485.8 107.5Q484.9 100.9 482.0 91.8Q479.2 82.7 476.0 76.1L476.0 76.1Q483.0 76.4 490.3 76.5Q497.6 76.6 500.1 76.6L500.1 76.6Q503.0 76.6 504.1 75.6Q505.1 74.5 505.1 71.8L505.1 71.8L505.1 33.2Q493.0 36.1 482.4 38.6L482.4 38.6ZM619.6 63.2L619.6 63.2Q614.6 56.1 610.5 48.4L610.5 48.4Q601.9 33.0 595.3 14.8L595.3 14.8L595.3 80.0Q606.0 74.5 614.6 67.5L614.6 67.5Q617.1 65.5 619.6 63.2ZM650.3 9.8L625.1 9.8Q630.1 21.6 636.9 32.3L636.9 32.3Q638.3 34.8 639.9 37.0L639.9 37.0Q644.4 28.4 647.8 18.4L647.8 18.4Q649.2 14.3 650.3 9.8L650.3 9.8Z"/></svg>
